<svg enable-background="new 0 0 850.4 721.8" viewBox="0 0 850.4 721.8" xmlns="http://www.w3.org/2000/svg" xmlns:xlink="http://www.w3.org/1999/xlink"><linearGradient id="a"><stop offset="0" stop-color="#2ffa2a"/><stop offset=".302" stop-color="#72ab34"/><stop offset=".5997" stop-color="#15b066"/><stop offset=".8441" stop-color="#ede424"/><stop offset="1" stop-color="#afe60e"/></linearGradient><linearGradient id="b" gradientUnits="userSpaceOnUse" x1="823.9348" x2="280.8813" xlink:href="#a" y1="206.6536" y2="797.7124"/><linearGradient id="c" gradientUnits="userSpaceOnUse" x1="783.0212" x2="239.968" xlink:href="#a" y1="169.0632" y2="760.1218"/><linearGradient id="d" gradientUnits="userSpaceOnUse" x1="731.2762" x2="188.2238" xlink:href="#a" y1="121.5238" y2="712.5814"/><linearGradient id="e" gradientUnits="userSpaceOnUse" x1="749.0825" x2="206.0285" xlink:href="#a" y1="137.8804" y2="728.9397"/><linearGradient id="f" gradientUnits="userSpaceOnUse" x1="774.2679" x2="231.2145" xlink:href="#a" y1="161.0208" y2="752.0796"/><linearGradient id="g" gradientUnits="userSpaceOnUse" x1="761.842" x2="218.7878" xlink:href="#a" y1="149.6043" y2="740.6638"/><linearGradient id="h" gradientUnits="userSpaceOnUse" x1="741.1547" x2="198.1" xlink:href="#a" y1="130.5962" y2="721.6562"/><linearGradient id="i" gradientUnits="userSpaceOnUse" x1="759.1416" x2="216.0868" xlink:href="#a" y1="147.1236" y2="738.1838"/><linearGradient id="j" gradientUnits="userSpaceOnUse" x1="846.5739" x2="303.5191" xlink:href="#a" y1="227.4535" y2="818.5136"/><linearGradient id="k" gradientUnits="userSpaceOnUse" x1="716.5989" x2="173.5439" xlink:href="#a" y1="108.0353" y2="699.0956"/><linearGradient id="l" gradientUnits="userSpaceOnUse" x1="837.7217" x2="294.6678" xlink:href="#a" y1="219.3216" y2="810.3808"/><linearGradient id="m" gradientUnits="userSpaceOnUse" x1="777.6078" x2="234.5551" xlink:href="#a" y1="164.0909" y2="755.1488"/><linearGradient id="n" gradientUnits="userSpaceOnUse" x1="777.03" x2="233.974" xlink:href="#a" y1="163.5562" y2="754.6177"/><linearGradient id="o" gradientUnits="userSpaceOnUse" x1="792.0222" x2="248.9674" xlink:href="#a" y1="177.3316" y2="768.3919"/><linearGradient id="p" gradientUnits="userSpaceOnUse" x1="736.6032" x2="193.5494" xlink:href="#a" y1="126.4159" y2="717.4752"/><linearGradient id="q" gradientUnits="userSpaceOnUse" x1="812.1189" x2="269.063" xlink:href="#a" y1="195.7962" y2="786.8577"/><linearGradient id="r" gradientUnits="userSpaceOnUse" x1="742.114" x2="199.057" xlink:href="#a" y1="131.4743" y2="722.5368"/><linearGradient id="s" gradientUnits="userSpaceOnUse" x1="797.1293" x2="254.0773" xlink:href="#a" y1="182.0279" y2="773.0851"/><linearGradient id="t" gradientUnits="userSpaceOnUse" x1="751.5049" x2="208.4479" xlink:href="#a" y1="140.1026" y2="731.1651"/><linearGradient id="u" gradientUnits="userSpaceOnUse" x1="754.0265" x2="210.9737" xlink:href="#a" y1="142.4239" y2="733.4819"/><linearGradient id="v" gradientUnits="userSpaceOnUse" x1="725.9202" x2="182.8674" xlink:href="#a" y1="116.6013" y2="707.6593"/><linearGradient id="w" gradientUnits="userSpaceOnUse" x1="781.488" x2="238.4313" xlink:href="#a" y1="167.6519" y2="758.7141"/><linearGradient id="x" gradientUnits="userSpaceOnUse" x1="803.9929" x2="260.9374" xlink:href="#a" y1="188.3305" y2="779.3914"/><linearGradient id="y" gradientUnits="userSpaceOnUse" x1="801.3128" x2="258.2588" xlink:href="#a" y1="185.8691" y2="776.9285"/><linearGradient id="z" gradientUnits="userSpaceOnUse" x1="742.4835" x2="199.4294" xlink:href="#a" y1="131.8174" y2="722.8768"/><linearGradient id="A" gradientUnits="userSpaceOnUse" x1="923.3412" x2="380.2872" xlink:href="#a" y1="297.9865" y2="889.0459"/><linearGradient id="B" gradientUnits="userSpaceOnUse" x1="899.8928" x2="356.8393" xlink:href="#a" y1="276.4424" y2="867.5012"/><linearGradient id="C" gradientUnits="userSpaceOnUse" x1="866.7236" x2="323.6684" xlink:href="#a" y1="245.9671" y2="837.0276"/><linearGradient id="D" gradientUnits="userSpaceOnUse" x1="883.0881" x2="340.0346" xlink:href="#a" y1="261.0028" y2="852.0617"/><linearGradient id="E" gradientUnits="userSpaceOnUse" x1="910.3338" x2="367.2805" xlink:href="#a" y1="286.0354" y2="877.0941"/><linearGradient id="F" gradientUnits="userSpaceOnUse" x1="886.644" x2="343.5902" xlink:href="#a" y1="264.2706" y2="855.3297"/><linearGradient id="G" gradientUnits="userSpaceOnUse" x1="862.3237" x2="319.2691" xlink:href="#a" y1="241.9251" y2="832.9852"/><linearGradient id="H" gradientUnits="userSpaceOnUse" x1="863.0867" x2="320.0332" xlink:href="#a" y1="242.627" y2="833.6859"/><linearGradient id="I" gradientUnits="userSpaceOnUse" x1="843.3422" x2="300.2872" xlink:href="#a" y1="224.4848" y2="815.5453"/><linearGradient id="J" gradientUnits="userSpaceOnUse" x1="916.3265" x2="373.2729" xlink:href="#a" y1="291.5425" y2="882.6015"/><linearGradient id="K" gradientUnits="userSpaceOnUse" x1="704.1624" x2="161.1094" xlink:href="#a" y1="96.61" y2="687.6682"/><linearGradient id="L" gradientUnits="userSpaceOnUse" x1="909.0739" x2="366.0139" xlink:href="#a" y1="284.8753" y2="875.9412"/><linearGradient id="M" gradientUnits="userSpaceOnUse" x1="836.614" x2="293.5584" xlink:href="#a" y1="218.3026" y2="809.3636"/><linearGradient id="N" gradientUnits="userSpaceOnUse" x1="896.7046" x2="353.6526" xlink:href="#a" y1="273.5136" y2="864.5708"/><linearGradient id="O" gradientUnits="userSpaceOnUse" x1="780.6686" x2="237.6151" xlink:href="#a" y1="166.9019" y2="757.9607"/><linearGradient id="P" gradientUnits="userSpaceOnUse" x1="930.3964" x2="387.3398" xlink:href="#a" y1="304.4679" y2="895.53"/><linearGradient id="Q" gradientUnits="userSpaceOnUse" x1="698.9582" x2="155.9041" xlink:href="#a" y1="91.8271" y2="682.8866"/><linearGradient id="R" gradientUnits="userSpaceOnUse" x1="857.2159" x2="314.163" xlink:href="#a" y1="237.2328" y2="828.2909"/><linearGradient id="S" gradientUnits="userSpaceOnUse" x1="869.1676" x2="326.1136" xlink:href="#a" y1="248.2124" y2="839.2717"/><linearGradient id="T" gradientUnits="userSpaceOnUse" x1="632.0803" x2="89.0265" xlink:href="#a" y1="30.3819" y2="621.4411"/><linearGradient id="U" gradientUnits="userSpaceOnUse" x1="573.1754" x2="30.1217" xlink:href="#a" y1="-23.7393" y2="567.3196"/><linearGradient id="V" gradientUnits="userSpaceOnUse" x1="498.6776" x2="-44.3765" xlink:href="#a" y1="-92.1869" y2="498.8726"/><linearGradient id="W" gradientUnits="userSpaceOnUse" x1="524.3113" x2="-18.7426" xlink:href="#a" y1="-68.6339" y2="522.4252"/><linearGradient id="X" gradientUnits="userSpaceOnUse" x1="560.5728" x2="17.5187" xlink:href="#a" y1="-35.3184" y2="555.7411"/><linearGradient id="Y" gradientUnits="userSpaceOnUse" x1="542.6829" x2="-.3706" xlink:href="#a" y1="-51.7558" y2="539.3031"/><linearGradient id="Z" gradientUnits="userSpaceOnUse" x1="512.897" x2="-30.157" xlink:href="#a" y1="-79.1212" y2="511.9382"/><linearGradient id="aa" gradientUnits="userSpaceOnUse" x1="538.7949" x2="-4.2588" xlink:href="#a" y1="-55.3272" y2="535.7318"/><linearGradient id="ab" gradientUnits="userSpaceOnUse" x1="664.6747" x2="121.6207" xlink:href="#a" y1="60.3289" y2="651.3883"/><linearGradient id="ac" gradientUnits="userSpaceOnUse" x1="477.5434" x2="-65.5107" xlink:href="#a" y1="-111.6041" y2="479.4554"/><linearGradient id="ad" gradientUnits="userSpaceOnUse" x1="651.9311" x2="108.8774" xlink:href="#a" y1="48.6196" y2="639.6786"/><linearGradient id="ae" gradientUnits="userSpaceOnUse" x1="565.3817" x2="22.3284" xlink:href="#a" y1="-30.8986" y2="560.16"/><linearGradient id="af" gradientUnits="userSpaceOnUse" x1="564.5486" x2="21.4933" xlink:href="#a" y1="-31.667" y2="559.3937"/><linearGradient id="ag" gradientUnits="userSpaceOnUse" x1="586.1326" x2="43.0799" xlink:href="#a" y1="-11.8328" y2="579.2252"/><linearGradient id="ah" gradientUnits="userSpaceOnUse" x1="506.3464" x2="-36.7088" xlink:href="#a" y1="-85.1423" y2="505.9183"/><linearGradient id="ai" gradientUnits="userSpaceOnUse" x1="615.0677" x2="72.0147" xlink:href="#a" y1="14.7508" y2="605.809"/><linearGradient id="aj" gradientUnits="userSpaceOnUse" x1="514.2754" x2="-28.7773" xlink:href="#a" y1="-77.854" y2="513.204"/><linearGradient id="ak" gradientUnits="userSpaceOnUse" x1="593.4885" x2="50.4355" xlink:href="#a" y1="-5.0746" y2="585.9837"/><linearGradient id="al" gradientUnits="userSpaceOnUse" x1="527.7985" x2="-15.2574" xlink:href="#a" y1="-65.4342" y2="525.6273"/><linearGradient id="am" gradientUnits="userSpaceOnUse" x1="531.4304" x2="-11.6233" xlink:href="#a" y1="-62.0936" y2="528.9654"/><linearGradient id="an" gradientUnits="userSpaceOnUse" x1="490.9623" x2="-52.0885" xlink:href="#a" y1="-99.2696" y2="491.7863"/><linearGradient id="ao" gradientUnits="userSpaceOnUse" x1="570.9657" x2="27.9126" xlink:href="#a" y1="-25.7688" y2="565.2896"/><linearGradient id="ap" gradientUnits="userSpaceOnUse" x1="603.368" x2="60.3154" xlink:href="#a" y1="4.0022" y2="595.06"/><linearGradient id="aq" gradientUnits="userSpaceOnUse" x1="599.5106" x2="56.4574" xlink:href="#a" y1=".4571" y2="591.5156"/><linearGradient id="ar" gradientUnits="userSpaceOnUse" x1="514.8103" x2="-28.2431" xlink:href="#a" y1="-77.3632" y2="513.6955"/><linearGradient id="as" gradientUnits="userSpaceOnUse" x1="775.201" x2="232.1474" xlink:href="#a" y1="161.8785" y2="752.9374"/><linearGradient id="at" gradientUnits="userSpaceOnUse" x1="741.4412" x2="198.3872" xlink:href="#a" y1="130.8602" y2="721.9196"/><linearGradient id="au" gradientUnits="userSpaceOnUse" x1="693.6857" x2="150.6325" xlink:href="#a" y1="86.9833" y2="678.0419"/><linearGradient id="av" gradientUnits="userSpaceOnUse" x1="717.2469" x2="174.1933" xlink:href="#a" y1="108.6308" y2="699.6897"/><linearGradient id="aw" gradientUnits="userSpaceOnUse" x1="756.4729" x2="213.4193" xlink:href="#a" y1="144.6726" y2="735.7315"/><linearGradient id="ax" gradientUnits="userSpaceOnUse" x1="722.3668" x2="179.3131" xlink:href="#a" y1="113.3351" y2="704.3941"/><linearGradient id="ay" gradientUnits="userSpaceOnUse" x1="687.351" x2="144.2975" xlink:href="#a" y1="81.1639" y2="672.2228"/><linearGradient id="az" gradientUnits="userSpaceOnUse" x1="688.4507" x2="145.3877" xlink:href="#a" y1="82.1733" y2="673.2425"/><linearGradient id="aA" gradientUnits="userSpaceOnUse" x1="660.0224" x2="116.9678" xlink:href="#a" y1="56.0544" y2="647.1144"/><linearGradient id="aB" gradientUnits="userSpaceOnUse" x1="765.1024" x2="222.0431" xlink:href="#a" y1="152.5999" y2="743.665"/><linearGradient id="aC" gradientUnits="userSpaceOnUse" x1="459.6392" x2="-83.42" xlink:href="#a" y1="-128.055" y2="463.01"/><linearGradient id="aD" gradientUnits="userSpaceOnUse" x1="754.6585" x2="211.6003" xlink:href="#a" y1="143.0027" y2="734.0667"/><linearGradient id="aE" gradientUnits="userSpaceOnUse" x1="650.3353" x2="107.2801" xlink:href="#a" y1="47.1535" y2="638.2141"/><linearGradient id="aF" gradientUnits="userSpaceOnUse" x1="736.8516" x2="193.796" xlink:href="#a" y1="126.6429" y2="717.7039"/><linearGradient id="aG" gradientUnits="userSpaceOnUse" x1="569.7886" x2="26.7343" xlink:href="#a" y1="-26.8515" y2="564.2083"/><linearGradient id="aH" gradientUnits="userSpaceOnUse" x1="785.3578" x2="242.3066" xlink:href="#a" y1="171.211" y2="762.2673"/><linearGradient id="aI" gradientUnits="userSpaceOnUse" x1="452.1452" x2="-90.9089" xlink:href="#a" y1="-134.9398" y2="456.1197"/><linearGradient id="aJ" gradientUnits="userSpaceOnUse" x1="679.9977" x2="136.9444" xlink:href="#a" y1="74.4073" y2="665.4659"/><linearGradient id="aK" gradientUnits="userSpaceOnUse" x1="697.2047" x2="154.1497" xlink:href="#a" y1="90.2159" y2="681.2763"/><path d="m603.6 483.7-212.4-115.8-5.9-241.9 206.5-126 212.4 115.8 5.9 241.9z" fill="#fff"/><path d="m306.6 483.7-212.4-115.8-5.9-241.9 206.5-126 212.4 115.8 5.9 241.9z" fill="#fff"/><path d="m478.6 480-43.8 25.3v32.5h.7v-32.1l43.1-24.9 43.1 24.9v59.4l43.8 25.3 43.8-25.3v-32.5h-.7v32.1l-43.1 24.9-43.1-24.9v-59.4z" fill="url(#b)"/><path d="m668.8 326.3-.2.1-54.6-31.6v-.8l54.6 31.6 51.2-29.6v.8z" fill="url(#c)"/><path d="m407.3 485.6-.3-.1-42.5 24.5v-.8l42.5-24.5.3.1z" fill="url(#d)"/><path d="m539.4 431.2-59.8-34.5-59.7 34.5h-1.4l60.9-35.2.2-.1 60.9 35.2.2.1z" fill="url(#e)"/><path d="m407 585.8-42.5-24.5v-.8l42.5 24.5 41.9-24.2v.8z" fill="url(#f)"/><path d="m345.9 500.5v70.6l.2.1 60.9 35.2.2-.1 60.9-35.2v-40.3h-.7v39.9l-60.4 34.9-60.4-34.9v-69.8l59.2-34.2v-.8z" fill="url(#g)"/><path d="m479.1 314v70.6l.2.1 60.9 35.1.2-.1 60.9-35.1v-40.3h-.7v39.9l-60.4 34.9-60.4-34.9v-69.8l59.3-34.2v-.8z" fill="url(#h)"/><path d="m512.1 452.5-33-19-33.1 19.1v37.5h-.7v-37.9l33.8-19.5 33 19z" fill="url(#i)"/><path d="m642.5 486-32.9-19-33.1 19.1v37.5h-.7v-37.9l33.8-19.5 32.9 19z" fill="url(#j)"/><path d="m603.2 290.4v-.8l-54.5-31.4-.1-.1-51.2 29.5v.8l51.2-29.5z" fill="url(#k)"/><path d="m663.5 467.9v-.7l-54.5-31.5-.2-.1-51.1 29.6v.7l51.1-29.5z" fill="url(#l)"/><path d="m438.4 536.8c0-1.8-1.4-3.2-3.2-3.2s-3.2 1.4-3.2 3.2 1.4 3.2 3.2 3.2 3.2-1.4 3.2-3.2z" fill="url(#m)"/><path d="m517.1 452.3c0-2.9-2.4-5.3-5.3-5.3s-5.3 2.4-5.3 5.3 2.4 5.3 5.3 5.3 5.3-2.4 5.3-5.3z" fill="url(#n)"/><path d="m471.9 530.2c0-2.2-1.8-4.1-4.1-4.1s-4.1 1.8-4.1 4.1c0 2.2 1.8 4.1 4.1 4.1s4.1-1.9 4.1-4.1z" fill="url(#o)"/><path d="m412.6 484.8c0-2.9-2.4-5.3-5.3-5.3s-5.3 2.4-5.3 5.3 2.4 5.3 5.3 5.3 5.3-2.4 5.3-5.3z" fill="url(#p)"/><circle cx="719.7" cy="296.4" fill="url(#q)" r="5.3"/><path d="m382.4 524.9c0-1-.8-1.8-1.8-1.8s-1.8.8-1.8 1.8.8 1.8 1.8 1.8 1.8-.8 1.8-1.8z" fill="url(#r)"/><path d="m450.7 561.1c0-1-.8-1.8-1.8-1.8s-1.8.8-1.8 1.8.8 1.8 1.8 1.8 1.8-.8 1.8-1.8z" fill="url(#s)"/><path d="m366.3 561.3c0-1-.8-1.8-1.8-1.8s-1.8.8-1.8 1.8.8 1.8 1.8 1.8 1.8-.8 1.8-1.8z" fill="url(#t)"/><path d="m615.8 294.8c0-1-.8-1.8-1.8-1.8s-1.8.8-1.8 1.8.8 1.8 1.8 1.8 1.8-.8 1.8-1.8z" fill="url(#u)"/><path d="m366.5 509.8c0-1-.8-1.8-1.8-1.8s-1.8.8-1.8 1.8.8 1.8 1.8 1.8 1.8-.8 1.8-1.8z" fill="url(#v)"/><circle cx="539.4" cy="431.2" fill="url(#w)" r="2.7"/><path d="m613.7 400.5c0-2.5-2.1-4.6-4.6-4.6s-4.6 2.1-4.6 4.6 2.1 4.6 4.6 4.6 4.6-2.1 4.6-4.6z" fill="url(#x)"/><path d="m675.6 457.7 57.7-33.3v-42.8h-.9v42.2l-56.8 32.8-56.7-32.8-.1-78.3-57.6-33.3-57.7 33.3v42.8h.9v-42.3l56.8-32.7 56.7 32.7.1 78.4z" fill="url(#y)"/><path d="m561 286 .2-.1 71.9 41.6v1l-71.9-41.5-67.4 38.9v-1.1z" fill="url(#z)"/><path d="m769.6 450.2.3.3 56-32.3v1l-56 32.3-.3-.2z" fill="url(#A)"/><path d="m595.6 521.9 78.7 45.5 78.7-45.5h1.8v.1l-80.2 46.3-.3.1-80.2-46.3-.2-.1v-.1z" fill="url(#B)"/><path d="m769.9 318.3 56 32.3v1l-56-32.3-55.2 31.9v-1z" fill="url(#C)"/><path d="m850.4 430.6v-92.9l-.2-.2-80.2-46.3-.3.1-80.2 46.4v53h.9v-52.5l79.6-45.9 79.5 45.9v91.9l-78 45v1.1z" fill="url(#D)"/><path d="m675 676.2v-92.9l-.3-.1-80.2-46.3-.2.1-80.3 46.3v53h.9v-52.5l79.6-45.9 79.6 45.9v91.9l-78.1 45.1v1z" fill="url(#E)"/><path d="m631.6 493.8 43.4 25.1 43.6-25.1v-49.4h.9v49.9l-44.5 25.6-43.4-25z" fill="url(#F)"/><path d="m728.6 382.8c0 2.4 1.9 4.3 4.3 4.3s4.3-1.9 4.3-4.3-1.9-4.3-4.3-4.3c-2.4.1-4.3 2-4.3 4.3z" fill="url(#G)"/><path d="m625 494.2c0 3.8 3.1 7 7 7 3.8 0 7-3.1 7-7 0-3.8-3.1-7-7-7s-7 3.1-7 7z" fill="url(#H)"/><path d="m684.5 391.6c0 3 2.4 5.3 5.3 5.3 3 0 5.3-2.4 5.3-5.3 0-3-2.4-5.3-5.3-5.3-2.9-.1-5.3 2.3-5.3 5.3z" fill="url(#I)"/><circle cx="769.6" cy="451.3" fill="url(#J)" r="7"/><path d="m487 325.4c0 3.8 3.1 7 7 7s7-3.1 7-7c0-3.8-3.1-7-7-7s-7 3.1-7 7z" fill="url(#K)"/><path d="m802.3 398.5c0 1.3 1.1 2.4 2.4 2.4s2.4-1.1 2.4-2.4-1.1-2.4-2.4-2.4-2.4 1.1-2.4 2.4z" fill="url(#L)"/><circle cx="714.8" cy="350.9" fill="url(#M)" r="2.4"/><path d="m823.5 350.6c0 1.3 1.1 2.4 2.4 2.4s2.4-1.1 2.4-2.4-1.1-2.4-2.4-2.4-2.4 1.1-2.4 2.4z" fill="url(#N)"/><path d="m630.8 327.5c0 1.3 1.1 2.4 2.4 2.4s2.4-1.1 2.4-2.4-1.1-2.4-2.4-2.4c-1.4 0-2.4 1.1-2.4 2.4z" fill="url(#O)"/><path d="m823.3 418.4c0 1.3 1.1 2.4 2.4 2.4s2.4-1.1 2.4-2.4-1.1-2.4-2.4-2.4-2.4 1.1-2.4 2.4z" fill="url(#P)"/><path d="m387.7 426.8c0 1.9 1.6 3.5 3.5 3.5s3.5-1.6 3.5-3.5-1.6-3.5-3.5-3.5-3.5 1.6-3.5 3.5z" fill="url(#Q)"/><path d="m592.1 521.9c0 1.9 1.6 3.5 3.5 3.5s3.5-1.6 3.5-3.5-1.6-3.5-3.5-3.5-3.5 1.6-3.5 3.5z" fill="url(#R)"/><path d="m508.2 634.4c0 3.3 2.7 6.1 6.1 6.1 3.3 0 6.1-2.7 6.1-6.1 0-3.3-2.7-6.1-6.1-6.1-3.3.1-6.1 2.8-6.1 6.1z" fill="url(#S)"/><path d="m191.1 362.8-63.1 36.4v46.7h1v-46.2l62.1-35.8 62.1 35.8v85.7l63 36.4 63.1-36.4v-46.8h-1v46.2l-62.1 35.8-62-35.8-.1-85.6z" fill="url(#T)"/><path d="m464.9 141.5-.2.1-78.7-45.4v-1.2l78.7 45.5 73.7-42.6v1.2z" fill="url(#U)"/><path d="m88.4 370.9-.4-.3-61.2 35.4v-1.2l61.2-35.3.4.2z" fill="url(#V)"/><path d="m278.5 292.5-86-49.7-86 49.7h-2l87.8-50.7.2-.1 87.7 50.6.3.2z" fill="url(#W)"/><path d="m88 515.1-61.2-35.3v-1.1l61.2 35.3 60.3-34.8v1.1z" fill="url(#X)"/><path d="m0 392.4v101.5l.2.2 87.8 50.6.2-.1 87.7-50.7v-57.9h-1v57.4l-86.9 50.2-87-50.2v-100.5l85.3-49.2v-1.2z" fill="url(#Y)"/><path d="m191.8 123.8v101.6l.3.1 87.7 50.7.2-.2 87.7-50.6v-58h-.9v57.4l-87 50.2-87-50.2v-100.4l85.3-49.3v-1.1z" fill="url(#Z)"/><path d="m239.3 323.2-47.5-27.4-47.7 27.5v54h-.9v-54.6l48.6-28 47.5 27.4z" fill="url(#aa)"/><path d="m427.1 371.5-47.5-27.5-47.6 27.5v54h-1v-54.5l48.6-28.1 47.5 27.4z" fill="url(#ab)"/><path d="m370.5 89.9v-1.2l-78.5-45.3-.2-.1-73.7 42.5v1.2l73.7-42.6z" fill="url(#ac)"/><path d="m457.3 345.4v-1.1l-78.5-45.3-.2-.1-73.7 42.5v1.1l73.7-42.5z" fill="url(#ad)"/><path d="m133.2 444.6c0-2.6-2.1-4.7-4.7-4.7s-4.7 2.1-4.7 4.7 2.1 4.7 4.7 4.7c2.6-.1 4.7-2.2 4.7-4.7z" fill="url(#ae)"/><circle cx="238.8" cy="322.9" fill="url(#af)" r="7.6"/><path d="m181.4 435c0-3.2-2.6-5.8-5.8-5.8s-5.8 2.6-5.8 5.8 2.6 5.8 5.8 5.8 5.8-2.6 5.8-5.8z" fill="url(#ag)"/><circle cx="88.4" cy="369.7" fill="url(#ah)" r="7.6"/><circle cx="538.2" cy="98.4" fill="url(#ai)" r="7.6"/><path d="m52.6 427.4c0-1.4-1.2-2.6-2.6-2.6s-2.6 1.2-2.6 2.6 1.2 2.6 2.6 2.6 2.6-1.1 2.6-2.6z" fill="url(#aj)"/><path d="m150.9 479.5c0-1.4-1.2-2.6-2.6-2.6s-2.6 1.2-2.6 2.6 1.2 2.6 2.6 2.6 2.6-1.1 2.6-2.6z" fill="url(#ak)"/><path d="m29.4 479.8c0-1.4-1.2-2.6-2.6-2.6s-2.6 1.2-2.6 2.6 1.2 2.6 2.6 2.6c1.5 0 2.6-1.2 2.6-2.6z" fill="url(#al)"/><path d="m388.6 96.2c0-1.4-1.2-2.6-2.6-2.6s-2.6 1.2-2.6 2.6 1.2 2.6 2.6 2.6 2.6-1.2 2.6-2.6z" fill="url(#am)"/><path d="m29.6 405.7c0-1.4-1.2-2.6-2.6-2.6s-2.6 1.2-2.6 2.6 1.2 2.6 2.6 2.6c1.5 0 2.6-1.2 2.6-2.6z" fill="url(#an)"/><path d="m282.4 292.5c0-2.1-1.7-3.8-3.8-3.8s-3.8 1.7-3.8 3.8 1.7 3.8 3.8 3.8 3.8-1.7 3.8-3.8z" fill="url(#ao)"/><path d="m385.5 248.3c0-3.7-3-6.6-6.6-6.6-3.7 0-6.6 3-6.6 6.6 0 3.7 3 6.6 6.6 6.6 3.7 0 6.6-3 6.6-6.6z" fill="url(#ap)"/><path d="m474.7 330.6 83.1-47.9v-61.6h-1.3v60.8l-81.8 47.2-81.7-47.2v-112.7l-83-48-83.1 48v61.6h1.3v-60.9l81.8-47.2 81.7 47.2v112.8z" fill="url(#aq)"/><path d="m309.6 83.5.4-.2 103.6 59.9v1.5l-103.6-59.9-97.1 56.1v-1.5z" fill="url(#ar)"/><path d="m610 319.9.5.3 80.5-46.5v1.5l-80.5 46.5-.5-.3z" fill="url(#as)"/><path d="m359.6 423.2 113.3 65.4 113.3-65.4h2.5l-115.5 66.7-.3.2-115.6-66.7-.3-.2z" fill="url(#at)"/><path d="m610.5 130 80.5 46.5v1.5l-80.5-46.5-79.4 45.8v-1.5z" fill="url(#au)"/><path d="m726.4 291.6v-133.7l-.3-.2-115.5-66.7-.4.2-115.5 66.7v76.3h1.3v-75.6l114.6-66.1 114.5 66.1v132.3l-112.4 64.9v1.5z" fill="url(#av)"/><path d="m473.8 645.3v-133.7l-.3-.2-115.6-66.7-.3.2-115.5 66.7v76.3h1.3v-75.6l114.5-66.1 114.6 66.1v132.3l-112.4 64.8v1.5z" fill="url(#aw)"/><path d="m411.3 382.7 62.5 36.1 62.8-36.2v-71.1h1.3v71.8l-64.1 37-62.5-36.1z" fill="url(#ax)"/><path d="m551 222.9c0 3.4 2.7 6.1 6.1 6.1s6.1-2.7 6.1-6.1-2.7-6.1-6.1-6.1-6.1 2.7-6.1 6.1z" fill="url(#ay)"/><circle cx="411.9" cy="383.2" fill="url(#az)" r="10"/><path d="m487.5 235.5c0 4.2 3.4 7.7 7.7 7.7 4.2 0 7.7-3.4 7.7-7.7 0-4.2-3.4-7.7-7.7-7.7s-7.7 3.4-7.7 7.7z" fill="url(#aA)"/><path d="m599.9 321.4c0 5.5 4.5 10 10 10s10-4.5 10-10-4.5-10-10-10-10 4.5-10 10z" fill="url(#aB)"/><path d="m203.1 140.2c0 5.5 4.5 10 10 10s10-4.5 10-10-4.5-10-10-10-10 4.4-10 10z" fill="url(#aC)"/><path d="m657.1 245.4c0 1.9 1.5 3.4 3.4 3.4s3.4-1.5 3.4-3.4-1.5-3.4-3.4-3.4c-1.8 0-3.4 1.5-3.4 3.4z" fill="url(#aD)"/><path d="m527.7 176.9c0 1.9 1.5 3.4 3.4 3.4s3.4-1.5 3.4-3.4-1.5-3.4-3.4-3.4c-1.8-.1-3.4 1.5-3.4 3.4z" fill="url(#aE)"/><path d="m687.6 176.5c0 1.9 1.5 3.4 3.4 3.4s3.4-1.5 3.4-3.4-1.5-3.4-3.4-3.4-3.4 1.5-3.4 3.4z" fill="url(#aF)"/><path d="m410.2 143.2c0 1.9 1.5 3.4 3.4 3.4s3.4-1.5 3.4-3.4-1.5-3.4-3.4-3.4c-1.9-.1-3.4 1.5-3.4 3.4z" fill="url(#aG)"/><path d="m687.4 274.1c0 1.9 1.5 3.4 3.4 3.4s3.4-1.5 3.4-3.4-1.5-3.4-3.4-3.4-3.4 1.5-3.4 3.4z" fill="url(#aH)"/><path d="m60.2 286.2c0 2.8 2.3 5 5 5 2.8 0 5-2.3 5-5 0-2.8-2.3-5-5-5-2.8-.1-5 2.2-5 5z" fill="url(#aI)"/><path d="m354.5 423.2c0 2.8 2.3 5 5 5 2.8 0 5-2.3 5-5 0-2.8-2.3-5-5-5-2.7-.1-5 2.2-5 5z" fill="url(#aJ)"/><path d="m233.7 585.2c0 4.8 3.9 8.7 8.7 8.7s8.7-3.9 8.7-8.7-3.9-8.7-8.7-8.7c-4.7-.1-8.7 3.8-8.7 8.7z" fill="url(#aK)"/></svg>